# xmcd CD database file
#
# Track frame offsets:
#	150
#	24729
#	44175
#	61449
#	85870
#	107282
#	123673
#	146128
#	162424
#	175025
#	189860
#	213125
#	233817
#
# Disc length: 3340 seconds
#
# Revision: 0
# Processed by: cddbd v1.5.2PL0 Copyright (c) Steve Scherf et al.
# Submitted via: CDex 1.70beta2
#
DISCID=b20d0a0d
DTITLE=Tim Koss - Home Run
DYEAR=1997
DGENRE=Jazz
TTITLE0=Skytrain
TTITLE1=Packin Up
TTITLE2=Home Run
TTITLE3=Soft Lights
TTITLE4=Spring Dews
TTITLE5=Tuesday to Tuesday
TTITLE6=Summer Trees
TTITLE7=Staff Meeting
TTITLE8=All That I Want
TTITLE9=Moe In The Lawn
TTITLE10=I Miss You
TTITLE11=Morning Pickup
TTITLE12=Cosmic Brew
EXTD=YEAR: 1997
EXTT0=
EXTT1=
EXTT2=
EXTT3=
EXTT4=
EXTT5=
EXTT6=
EXTT7=
EXTT8=
EXTT9=
EXTT10=
EXTT11=
EXTT12=
PLAYORDER=
